<svg width="41" height="50" viewBox="0 0 41 50" fill="none" xmlns="http://www.w3.org/2000/svg">
<path d="M25.7334 27.1895H15.4722V38H12.5059V27.1895H2.24463V24.311H12.5059V13.5664H15.4722V24.311H25.7334V27.1895Z" fill="white"/>
<path d="M27.7769 22H26.5757V17.8032C26.5757 17.1392 26.4658 16.6484 26.2461 16.3311C26.0312 16.0088 25.6943 15.8477 25.2354 15.8477C24.6885 15.8477 24.2954 16.0527 24.0562 16.4629C23.8218 16.873 23.7046 17.564 23.7046 18.5356V22H22.5107V17.8032C22.5107 17.1001 22.4131 16.5996 22.2178 16.3018C22.0273 15.999 21.7002 15.8477 21.2363 15.8477C20.6797 15.8477 20.2695 16.0747 20.0059 16.5288C19.7422 16.978 19.6104 17.6763 19.6104 18.6235V22H18.4165V14.998H19.6104V15.9282C19.791 15.5425 20.0474 15.2568 20.3794 15.0713C20.7114 14.8809 21.1265 14.7856 21.6245 14.7856C22.0835 14.7856 22.4741 14.8906 22.7964 15.1006C23.1235 15.3105 23.3579 15.6157 23.4995 16.0161C23.6851 15.6157 23.9585 15.3105 24.3198 15.1006C24.686 14.8906 25.123 14.7856 25.6309 14.7856C26.3047 14.7856 26.8296 15.0127 27.2056 15.4668C27.5864 15.916 27.7769 16.5581 27.7769 17.3931V22ZM31.395 22H30.1938V14.998H31.395V22ZM31.6221 12.2368C31.6221 12.4614 31.5391 12.6543 31.373 12.8154C31.2119 12.9766 31.019 13.0571 30.7944 13.0571C30.5698 13.0571 30.377 12.9766 30.2158 12.8154C30.0547 12.6543 29.9741 12.4614 29.9741 12.2368C29.9741 12.0122 30.0547 11.8193 30.2158 11.6582C30.377 11.4922 30.5698 11.4092 30.7944 11.4092C31.019 11.4092 31.2119 11.4922 31.373 11.6582C31.5391 11.8193 31.6221 12.0122 31.6221 12.2368ZM39.6421 22H38.4409V17.8179C38.4409 17.1392 38.3188 16.6411 38.0747 16.3237C37.8354 16.0063 37.4521 15.8477 36.9248 15.8477C36.3242 15.8477 35.8652 16.0845 35.5479 16.5581C35.2354 17.0317 35.0791 17.7251 35.0791 18.6382V22H33.8853V14.998H35.0791V16.0308C35.2891 15.6157 35.582 15.3057 35.958 15.1006C36.334 14.8906 36.793 14.7856 37.335 14.7856C38.0527 14.7856 38.6167 15.0225 39.0269 15.4961C39.437 15.9697 39.6421 16.6338 39.6421 17.4883V22Z" fill="white"/>
</svg>
