<svg width="369" height="526" viewBox="0 0 369 526" fill="none" xmlns="http://www.w3.org/2000/svg">
<path d="M227.797 321.906H136.586V418H110.219V321.906H19.0078V296.32H110.219V200.812H136.586V296.32H227.797V321.906Z" fill="black"/>
<path d="M252.492 263H241.681V225.229C241.681 219.252 240.692 214.836 238.715 211.979C236.781 209.079 233.749 207.629 229.618 207.629C224.696 207.629 221.159 209.475 219.005 213.166C216.896 216.857 215.841 223.076 215.841 231.821V263H205.097V225.229C205.097 218.901 204.218 214.396 202.46 211.716C200.746 208.991 197.802 207.629 193.627 207.629C188.617 207.629 184.926 209.672 182.553 213.759C180.18 217.802 178.993 224.086 178.993 232.612V263H168.249V199.982H178.993V208.354C180.619 204.882 182.926 202.312 185.915 200.642C188.903 198.928 192.638 198.071 197.121 198.071C201.251 198.071 204.767 199.016 207.667 200.905C210.612 202.795 212.721 205.542 213.996 209.145C215.666 205.542 218.126 202.795 221.378 200.905C224.674 199.016 228.607 198.071 233.178 198.071C239.242 198.071 243.966 200.114 247.35 204.201C250.778 208.244 252.492 214.023 252.492 221.538V263ZM285.055 263H274.245V199.982H285.055V263ZM287.099 175.131C287.099 177.153 286.352 178.889 284.857 180.339C283.407 181.789 281.671 182.514 279.65 182.514C277.628 182.514 275.893 181.789 274.442 180.339C272.992 178.889 272.267 177.153 272.267 175.131C272.267 173.11 272.992 171.374 274.442 169.924C275.893 168.43 277.628 167.683 279.65 167.683C281.671 167.683 283.407 168.43 284.857 169.924C286.352 171.374 287.099 173.11 287.099 175.131ZM359.279 263H348.468V225.361C348.468 219.252 347.37 214.77 345.172 211.914C343.019 209.057 339.569 207.629 334.823 207.629C329.418 207.629 325.287 209.76 322.431 214.023C319.618 218.286 318.212 224.526 318.212 232.744V263H307.467V199.982H318.212V209.277C320.102 205.542 322.738 202.751 326.122 200.905C329.506 199.016 333.637 198.071 338.515 198.071C344.975 198.071 350.05 200.202 353.742 204.465C357.433 208.728 359.279 214.704 359.279 222.395V263Z" fill="black"/>
</svg>
